HIERARCHY
ROOT Hips
{
	OFFSET	0	0	0
	CHANNELS 6  Xposition Yposition Zposition Xrotation Yrotation Zrotation
	JOINT Spine
	{
		OFFSET	0	7.0817	1.42564
		CHANNELS 3  Xrotation Yrotation Zrotation
		JOINT Spine1
		{
			OFFSET	0	12.1578	-2.17103
			CHANNELS 3  Xrotation Yrotation Zrotation
			JOINT Spine2
			{
				OFFSET	0	9.21601	0.987817
				CHANNELS 3  Xrotation Yrotation Zrotation
				JOINT Spine3
				{
					OFFSET	0	11.0288	3.27825
					CHANNELS 3  Xrotation Yrotation Zrotation
					JOINT Spine4
					{
						OFFSET	0	16.3261	-1.67169
						CHANNELS 3  Xrotation Yrotation Zrotation
						JOINT Neck
						{
							OFFSET	0	7.79399	-5.46013
							CHANNELS 3  Xrotation Yrotation Zrotation
							JOINT Head
							{
								OFFSET	0	9.35713	-2.80063
								CHANNELS 3  Xrotation Yrotation Zrotation
								End Site
								{
									OFFSET	0	19.5175	-0.944397
								}
							}
						}
					}
					JOINT LeftShoulder
					{
						OFFSET	-4.68942	19.8432	-9.35713
						CHANNELS 3  Xrotation Yrotation Zrotation
						JOINT LeftArm
						{
							OFFSET	-10.2519	-2.80063	3.59307
							CHANNELS 3  Xrotation Yrotation Zrotation
							JOINT LeftForeArm
							{
								OFFSET	-34.1249	-1.55752	2.4358
								CHANNELS 3  Xrotation Yrotation Zrotation
								JOINT LeftHand
								{
									OFFSET	-28.1809	-1.94746	2.01152
									CHANNELS 3  Xrotation Yrotation Zrotation
									End Site
									{
										OFFSET	-10.2846	-0.710727	0.734058
									}
								}
							}
						}
					}
					JOINT RightShoulder
					{
						OFFSET	4.68942	19.8432	-9.35713
						CHANNELS 3  Xrotation Yrotation Zrotation
						JOINT RightArm
						{
							OFFSET	10.2519	-2.80063	3.59307
							CHANNELS 3  Xrotation Yrotation Zrotation
							JOINT RightForeArm
							{
								OFFSET	34.1249	-1.55752	2.4358
								CHANNELS 3  Xrotation Yrotation Zrotation
								JOINT RightHand
								{
									OFFSET	28.1809	-1.94746	2.01152
									CHANNELS 3  Xrotation Yrotation Zrotation
									End Site
									{
										OFFSET	10.2846	-0.710727	0.734058
									}
								}
							}
						}
					}
				}
			}
		}
	}
	JOINT LeftUpLeg
	{
		OFFSET	-9.64475	-3.54085	-0.712821
		CHANNELS 3  Xrotation Yrotation Zrotation
		JOINT LeftLeg
		{
			OFFSET	-2.14734	-42.0762	-0.657743
			CHANNELS 3  Xrotation Yrotation Zrotation
			JOINT LeftFoot
			{
				OFFSET	-2.09898	-38.6909	3.32741
				CHANNELS 3  Xrotation Yrotation Zrotation
				JOINT LeftToeBase
				{
					OFFSET	0	-4.81787	-12.7963
					CHANNELS 3  Xrotation Yrotation Zrotation
					End Site
					{
						OFFSET	0	-1.92715	-7.70859
					}
				}
			}
		}
	}
	JOINT RightUpLeg
	{
		OFFSET	9.64475	-3.54085	-0.712821
		CHANNELS 3  Xrotation Yrotation Zrotation
		JOINT RightLeg
		{
			OFFSET	2.14734	-42.0762	-0.657743
			CHANNELS 3  Xrotation Yrotation Zrotation
			JOINT RightFoot
			{
				OFFSET	2.09898	-38.6909	3.32741
				CHANNELS 3  Xrotation Yrotation Zrotation
				JOINT RightToeBase
				{
					OFFSET	0	-4.81787	-12.7963
					CHANNELS 3  Xrotation Yrotation Zrotation
					End Site
					{
						OFFSET	0	-1.92715	-7.70859
					}
				}
			}
		}
	}
}
MOTION
Frames: 20
Frame Time: 0.020408
 0 -10.1657 2.85827 -0 0 -0 -0 0 -0 -0 0 -0 -0 0 -0 -0 0 -0 -0 0 -0 -0 0 -0 -0 0 -0 -0 0 -0 -0 0 -0 -0 0 -0 -0 0 -0 -0 0 -0 -0 0 -0 -0 0 -0 -0 0 -0 -0 0 -0 -0 0 -0 -0 0 -0 -0 0 -0 -0 0 -0 -0 0 -0 -0 0 -0 -0 0 -0
 58.5918 88.1511 -300.662 175.765 -132.706 179.838 0.000462333 -0.0242251 1.09335 178.407 -179.952 -178.178 178.363 -179.855 -178.178 178.796 -179.976 -178.907 179.798 -179.999 -179.636 0.116031 6.09096 12.3122 0.282431 -2.80194 3.42498 1.33471 10.9416 2.27458 92.4207 -8.31682 -18.4994 173.918 -171.666 177.342 -0 6.87565 -0.706977 178.705 178.163 -177.463 169.111 -169.589 -145.259 5.07042 5.66434 0.577825 -0 53.5389 -1.70139 177.625 -148.312 173.735 142.595 155.18 -179.859 35.0421 -0.105891 7.6073 0.0551684 0 0 169.863 -163.245 160.544 177.892 -169.308 -179.838 16.1928 0.076748 -2.86033 0.0844305 0 0
 57.7547 88.344 -300.897 177.177 -131.681 -178.949 0.000384792 -0.0208823 1.05565 178.375 -179.958 -178.241 178.335 -179.875 -178.241 178.788 -179.979 -178.944 179.756 -179.999 -179.648 179.859 173.219 -166.487 0.25496 -2.83056 3.76891 1.28458 11.614 2.16858 92.409 -8.37063 -18.4318 173.907 -171.599 177.356 -0 6.83134 -0.697748 178.52 178.946 -177.117 167.961 -168.831 -147.501 3.835 10.1865 1.07972 -0 53.6688 -3.68876 175.778 -148.382 173.773 144.306 155.713 179.966 38.3156 0.046257 7.20621 0.0692727 0 0 169.653 -166.385 160.961 178.433 -169.474 179.585 14.9521 0.0858323 -1.68467 0.0986307 0 0
 57.3 88.5372 -301.179 178.469 -131.257 -177.808 0.000153041 -0.00845227 1.03731 178.353 -179.983 -178.271 178.315 -179.949 -178.271 178.785 -179.992 -178.963 179.723 -179.998 -179.654 179.609 172.524 -165.322 0.232606 -2.80491 4.10546 1.26962 12.022 2.13088 92.4343 -8.32897 -18.2893 173.895 -171.618 177.383 -0 6.81752 -0.695533 177.025 179.476 -174.222 165.662 -167.557 -149.835 2.01925 13.9808 0.839363 -0 53.6361 -6.58944 174.302 -148.362 173.825 145.79 156.251 179.819 39.7681 0.110848 6.59384 0.0822626 0 0 169.139 -168.864 161.22 179.649 -170 179.101 13.5763 0.10284 -0.780129 0.110227 0 0
 57.9849 88.743 -301.279 179.259 -130.484 -177.062 180 179.99 -178.984 178.374 179.98 -178.306 178.343 179.939 -178.306 178.828 179.99 -178.984 179.664 -179.998 -179.661 179.312 172.11 -164.6 0.175942 -2.72743 4.31021 1.33848 12.5341 2.22997 92.4736 -8.19774 -18.3098 173.883 -171.664 177.374 -0 6.80963 -0.695499 175.534 179.88 -171.329 163.944 -167.382 -152.569 0.881669 17.1794 1.34794 -0 53.5774 -8.95516 172.854 -148.32 173.809 147.004 156.724 179.712 40.2599 -0.00207137 6.01318 0.0936272 0 0 168.733 -170.536 161.71 0.917873 -10.0678 -0.8892 12.7063 -0.0311107 0.0144174 0.145474 0 0
 57.5861 88.866 -301.435 179.855 -130.356 -176.758 180 179.996 -178.953 178.414 179.992 -178.256 178.391 179.975 -178.256 178.874 179.996 -178.953 179.633 -179.998 -179.651 179.17 172.024 -164.471 0.138106 -2.6389 4.34727 1.29718 12.9065 2.14927 92.4415 -8.29093 -18.2991 173.878 -171.603 177.377 -0 6.77597 -0.694366 174.281 -179.705 -168.897 162.683 -167.433 -154.963 0.756892 19.7634 1.42574 -0 53.5876 -10.8633 171.526 -148.404 173.644 148.466 157.314 179.611 40.5906 -0.00219222 5.20252 0.103258 0 0 167.868 -172.027 161.623 2.56182 -10.0161 -0.818192 11.2804 0.0115228 0.607187 0.175359 0 0
 58.0723 89.0891 -301.736 0.703958 -50.571 3.40635 179.999 179.939 -178.88 178.449 179.878 -178.134 178.426 179.635 -178.134 178.924 179.939 -178.88 179.585 -179.997 -179.627 178.996 171.963 -164.421 0.0863413 -2.484 4.36413 1.3498 13.3317 2.2224 92.4708 -8.21152 -18.4635 173.866 -171.56 177.347 -0 6.75245 -0.699697 172.965 -179.399 -166.311 162.107 -168.214 -157.397 1.57973 21.8324 1.13519 -0 52.9954 -11.7763 170.09 -148.28 173.611 149.054 159.549 -179.196 37.2359 1.27624 8.295 0.0380312 0 0 166.638 -173.238 161.756 3.78899 -9.9018 -0.452389 9.68207 0.0991601 1.04535 0.200621 0 0
 58.6067 89.1333 -301.798 1.31048 -50.5553 3.73145 179.999 179.938 -178.875 178.49 179.876 -178.125 178.469 179.629 -178.125 178.956 179.938 -178.875 179.589 -179.997 -179.625 178.978 171.895 -164.477 0.0781106 -2.29592 4.36036 1.35811 13.6693 2.22471 92.4766 -8.15351 -18.4752 173.855 -171.579 177.334 -0 6.74893 -0.694233 171.558 -179.143 -163.501 161.956 -169.149 -159.676 3.08132 22.2666 0.526836 -0 52.0215 -11.9833 168.754 -148.168 173.204 150.105 160.197 -178.905 37.0537 1.45059 7.47932 0.0562173 0 0 165.407 -173.951 161.575 4.83659 -9.99098 -0.24507 8.88731 0.0314575 1.61349 0.22241 0 0
 59.0614 89.0202 -302.297 2.11931 -50.4865 3.74611 179.998 179.917 -178.861 178.52 179.834 -178.102 178.508 179.503 -178.102 179.014 179.917 -178.861 179.512 -179.997 -179.62 178.694 171.716 -164.197 0.00326251 -2.12017 4.44082 1.47328 13.9287 2.40405 92.4942 -8.03099 -18.4821 173.846 -171.564 177.385 -0 6.72896 -0.684807 170.371 -178.987 -161.08 161.962 -169.995 -161.495 5.18175 21.9451 -0.221518 -0 51.1295 -11.5743 167.965 -148.419 173.736 150.594 160.769 -178.589 37.1448 2.10681 7.4419 0.0316377 0 0 164.418 -174.448 161.143 5.60991 -9.78608 2.08822 10.0507 1.76276 9.08505 0.285021 0 0
 59.4879 88.9742 -302.439 2.63828 -50.408 4.08387 179.998 179.915 -178.867 178.592 179.831 -178.111 178.58 179.492 -178.111 179.063 179.915 -178.867 179.533 -179.997 -179.622 178.695 171.615 -164.27 0.000288125 -1.86742 4.43805 1.46889 14.3958 2.37961 92.4632 -8.0783 -18.5393 173.848 -171.556 177.365 -0 6.73143 -0.680741 169.534 -178.884 -159.345 162.253 -171.011 -163.383 7.35645 21.8619 -0.963216 -0 50.3313 -11.1125 167.149 -148.526 173.646 151.236 161.375 -178.644 37.027 2.35303 6.97144 0.0364166 0 0 163.306 -174.771 161.026 6.60283 -9.65085 2.12315 9.71831 1.7928 9.40388 0.315538 0 0
 59.6247 88.989 -302.505 2.8344 -50.2216 4.35649 179.998 179.897 -178.862 178.691 179.794 -178.103 178.66 179.382 -178.103 179.077 179.897 -178.862 179.688 -179.998 -179.621 179.068 171.491 -164.532 0.104469 -1.59352 4.3995 1.48439 14.7354 2.39196 92.4947 -8.05576 -18.5694 173.845 -171.658 177.336 -0 6.74496 -0.6886 169.402 -178.891 -159.064 163.164 -171.673 -164.132 9.62197 21.3649 -1.68058 -0 49.6447 -10.4992 166.629 -148.461 173.174 152.072 162.024 -178.433 36.5339 1.7857 5.59518 0.0724401 0 0 162.828 -174.297 160.665 6.84615 -9.68892 2.13508 9.62311 1.51305 8.71185 0.33108 0 0
 59.6968 89.1097 -302.427 3.12022 -49.8749 4.78 179.998 179.906 -178.861 178.781 179.813 -178.102 178.76 179.438 -178.102 179.165 179.906 -178.861 179.652 -179.998 -179.62 178.886 171.417 -164.519 0.0481776 -1.37021 4.41029 1.40362 14.9428 2.25421 92.4732 -8.13155 -18.5342 173.834 -171.623 177.41 -0 6.73711 -0.689462 169.387 -179.202 -158.972 163.732 -172.471 -164.819 11.4636 20.6538 -2.38522 -0 49.0558 -10.0636 166.034 -148.489 172.764 152.764 162.358 -178.525 36.2277 2.22555 5.42764 0.0590244 0 0 161.843 -173.511 160.305 7.89265 -9.10124 2.07701 8.73603 2.13865 9.55252 0.381393 0 0
 60.051 89.2916 -302.478 3.17576 -49.6385 4.8444 179.998 179.913 -178.841 178.914 179.827 -178.069 178.899 179.48 -178.069 179.268 179.913 -178.841 179.663 -179.998 -179.614 178.831 171.453 -164.738 0.019906 -1.15781 4.35859 1.42327 15.1774 2.27727 92.4942 -8.11884 -18.484 173.831 -171.695 177.324 -0 6.7568 -0.68756 169.306 -179.456 -158.751 164.034 -173.265 -165.339 12.8726 19.9481 -2.90389 -0 48.5193 -10.2737 165.839 -148.833 172.732 153.56 162.654 -178.677 36.5228 1.23976 3.10539 0.0950815 0 0 161.01 -172.809 159.96 8.80015 -9.05285 2.21346 8.14638 1.8797 8.88828 0.402126 0 0
 60.383 89.4991 -302.633 3.158 -49.2551 4.71818 179.998 179.927 -178.794 179.046 179.854 -177.99 179.043 179.563 -177.99 179.387 179.927 -178.794 179.634 -179.997 -179.598 178.641 171.438 -164.805 179.957 -179.056 -175.654 1.40791 15.2418 2.25034 92.5058 -8.06216 -18.503 173.827 -171.749 177.316 -0 6.75242 -0.699145 169.218 -179.676 -158.521 163.848 -173.756 -165.897 13.5443 19.3165 -2.8972 -0 47.9401 -11.1715 166.014 -149.35 173.083 154.175 162.372 -178.951 36.7167 0.749351 0.938645 0.130771 0 0 160.395 -172.029 159.969 9.09297 -9.0893 1.96879 7.91963 1.75676 8.78805 0.429868 0 0
 60.8556 89.7053 -302.653 2.96414 -48.9177 4.45874 179.998 179.929 -178.735 179.186 179.859 -177.892 179.19 179.576 -177.892 179.502 179.929 -178.735 179.63 -179.997 -179.578 178.511 171.377 -164.846 179.915 -179.284 -175.655 1.37445 15.3021 2.19465 92.518 -8.05332 -18.4542 173.82 -171.795 177.307 -0 6.77187 -0.698486 169.196 -179.898 -158.431 163.652 -174.083 -166.256 14.0367 18.6901 -2.85046 -0 47.3861 -11.9487 165.972 -150.25 173.121 154.522 161.797 -179.104 37.9718 0.395985 -1.21107 0.161421 0 0 159.824 -171.599 159.751 9.49244 -8.83861 1.99995 7.4614 1.95967 9.23374 0.493188 0 0
 61.4963 89.8122 -302.716 2.73746 -47.6379 4.36537 180 179.998 -178.707 179.314 179.996 -177.845 179.327 179.989 -177.845 179.581 179.998 -178.707 179.682 -179.998 -179.569 178.582 171.351 -165.118 179.924 -179.583 -175.71 1.30434 15.3238 2.08187 92.5288 -8.06901 -18.2707 173.824 -171.815 177.351 -0 6.76951 -0.698989 169.191 -179.886 -158.421 163.195 -174.138 -166.411 14.1525 18.2423 -2.78141 -0 46.952 -13.4229 166.071 -151.811 172.912 155.165 160.127 -179.866 42.7781 -0.18775 -5.39721 0.22939 0 0 159.175 -170.787 159.173 9.79254 -9.19332 1.76505 7.43855 1.48087 8.86862 0.491961 0 0
 61.948 90.4134 -303.183 3.05702 -49.3946 3.51939 179.996 179.865 -178.493 179.467 179.729 -177.488 179.44 179.188 -177.488 179.638 179.865 -178.493 179.852 -179.999 -179.498 178.864 170.936 -164.929 0.0215276 -0.0764229 4.38324 1.37589 16.0407 2.17063 92.5349 -7.94725 -18.4249 173.814 -171.822 177.307 -0 6.72708 -0.7111 169.159 179.492 -158.234 162.632 -174.896 -166.142 14.0679 17.4204 -2.44056 -0 46.5415 -15.2825 165.473 -151.413 173.225 154.891 164.188 -176.864 36.8607 2.73919 3.52624 0.0411039 0 0 158.657 -170.56 160.807 9.66467 -8.16853 1.6905 6.82413 2.43517 9.34795 0.63916 0 0
 62.251 90.8001 -303.287 2.37 -49.2008 2.31008 179.996 179.866 -178.373 179.631 179.732 -177.289 179.588 179.196 -177.288 179.707 179.866 -178.373 0.00099108 9.38014e-06 0.542264 179.125 170.677 -164.944 0.10246 0.22727 4.41243 1.42183 16.3148 2.23299 92.5476 -7.87206 -18.4753 173.813 -171.989 177.291 -0 6.78632 -0.690557 169.101 179.51 -158.113 162.4 -175.391 -165.676 13.9702 16.6027 -2.25774 -0 46.1534 -17.1959 165.278 -151.779 173.321 156.512 164.868 -176.707 36.1308 3.23363 3.35214 0.0607779 0 0 158.805 -170.307 161.373 10.0076 -7.9186 1.69567 6.20645 2.6405 9.58989 0.727286 0 0
 62.6213 91.1103 -303.309 2.15752 -49.13 1.52954 179.997 179.895 -178.254 179.75 179.79 -177.09 179.692 179.37 -177.09 179.726 179.895 -178.254 0.179398 0.00182243 0.582024 179.52 170.362 -165.041 0.221442 0.633978 4.43074 1.41732 17.0785 2.19732 92.5195 -7.92395 -18.7483 173.817 -172.04 177.321 -0 6.80209 -0.688564 169.059 178.98 -157.922 162.177 -176.039 -165.291 13.8443 15.7349 -2.12143 -0 45.5211 -19.3841 164.519 -152.699 172.953 158.581 165.951 -176.074 35.3271 3.42064 2.59754 0.0883762 0 0 158.341 -169.519 161.799 10.487 -7.70037 1.45844 5.72649 2.81209 9.69178 0.787949 0 0
 62.2409 91.4106 -303.232 2.03835 -49.3705 1.33131 179.995 179.843 -178.289 179.876 179.686 -177.148 179.802 179.059 -177.148 179.796 179.843 -178.289 0.260779 0.00259612 0.570371 179.596 170.013 -164.869 0.253718 0.993384 4.51035 1.52296 17.7505 2.33394 92.5809 -7.87849 -18.7543 173.797 -171.914 177.201 -0 6.78245 -0.694354 169.068 178.899 -157.928 162.183 -176.407 -165.081 13.7926 15.4303 -1.9092 -0 45.1816 -21.1498 164.587 -154.372 172.896 159.942 167.291 -175.915 34.6485 3.49692 1.86776 0.0816373 0 0 158.065 -168.436 162.317 10.9194 -7.42856 0.807845 5.07522 2.94635 9.62868 0.819659 0 0
